<svg xmlns="http://www.w3.org/2000/svg" viewBox="0 0 16 16"><title>Website</title><path d="M8 0a8 8 0 1 0 8 8 8 8 0 0 0-8-8zm5.62 4.75h-1.967a10.146 10.146 0 0 0-.964-2.661 6.534 6.534 0 0 1 2.931 2.661zm.88 3.25a6.468 6.468 0 0 1-.246 1.75h-2.354a15.756 15.756 0 0 0 .1-1.75 15.756 15.756 0 0 0-.1-1.75h2.353a6.468 6.468 0 0 1 .247 1.75zm-6.5 6.5c-.683 0-1.606-1.221-2.117-3.25h4.235c-.512 2.029-1.435 3.25-2.118 3.25zm-2.391-4.75a14.109 14.109 0 0 1 0-3.5h4.782a14.25 14.25 0 0 1 .109 1.75 14.25 14.25 0 0 1-.109 1.75zm-4.109-1.75a6.468 6.468 0 0 1 .246-1.75h2.354a15.517 15.517 0 0 0 0 3.5h-2.354a6.468 6.468 0 0 1-.246-1.75zm6.5-6.5c.683 0 1.606 1.221 2.118 3.25h-4.236c.512-2.029 1.435-3.25 2.118-3.25zm-2.689.589a10.147 10.147 0 0 0-.964 2.661h-1.967a6.535 6.535 0 0 1 2.931-2.661zm-2.931 9.161h1.967a10.148 10.148 0 0 0 .964 2.661 6.535 6.535 0 0 1-2.931-2.661zm8.309 2.661a10.147 10.147 0 0 0 .964-2.661h1.967a6.534 6.534 0 0 1-2.931 2.661z" fill="#919191"/><path fill="none" d="M0 0h16v16h-16z"/></svg>